<svg width="796" height="157" viewBox="0 0 796 157" fill="none" xmlns="http://www.w3.org/2000/svg">
<path d="M157.53 73C157.05 73 156.81 72.76 156.81 72.28V23.32C156.81 22.84 157.05 22.6 157.53 22.6H171.57C175.842 22.6 179.202 23.824 181.65 26.272C184.146 28.72 185.394 32.056 185.394 36.28V59.32C185.394 63.544 184.146 66.88 181.65 69.328C179.202 71.776 175.842 73 171.57 73H157.53ZM161.922 68.248C161.922 68.44 162.018 68.536 162.21 68.536H171.642C174.282 68.488 176.37 67.624 177.906 65.944C179.442 64.216 180.234 61.864 180.282 58.888V36.712C180.282 33.736 179.514 31.384 177.978 29.656C176.442 27.928 174.33 27.064 171.642 27.064H162.21C162.018 27.064 161.922 27.16 161.922 27.352V68.248ZM206.35 35.992C210.19 35.992 213.19 37.096 215.35 39.304C217.558 41.512 218.662 44.44 218.662 48.088V72.28C218.662 72.76 218.422 73 217.942 73H214.27C213.79 73 213.55 72.76 213.55 72.28V69.688C213.55 69.592 213.502 69.52 213.406 69.472C213.358 69.424 213.286 69.448 213.19 69.544C212.134 70.888 210.79 71.896 209.158 72.568C207.526 73.24 205.702 73.576 203.686 73.576C200.662 73.576 198.07 72.76 195.91 71.128C193.798 69.496 192.742 66.832 192.742 63.136C192.742 59.296 193.966 56.392 196.414 54.424C198.91 52.408 202.294 51.4 206.566 51.4H213.262C213.454 51.4 213.55 51.304 213.55 51.112V48.376C213.55 45.928 212.926 44.008 211.678 42.616C210.478 41.176 208.678 40.456 206.278 40.456C204.406 40.456 202.846 40.936 201.598 41.896C200.35 42.808 199.606 44.032 199.366 45.568C199.318 46 199.054 46.216 198.574 46.216L194.614 46C194.374 46 194.182 45.928 194.038 45.784C193.942 45.64 193.918 45.472 193.966 45.28C194.302 42.496 195.598 40.264 197.854 38.584C200.158 36.856 202.99 35.992 206.35 35.992ZM204.694 69.112C207.094 69.112 209.158 68.464 210.886 67.168C212.662 65.824 213.55 63.976 213.55 61.624V55.792C213.55 55.6 213.454 55.504 213.262 55.504H206.926C204.19 55.504 202.006 56.152 200.374 57.448C198.742 58.696 197.926 60.496 197.926 62.848C197.926 64.96 198.55 66.544 199.798 67.6C201.046 68.608 202.678 69.112 204.694 69.112ZM242.056 36.064C245.416 36.064 248.056 37.144 249.976 39.304C251.944 41.416 252.928 44.32 252.928 48.016V72.28C252.928 72.76 252.688 73 252.208 73H248.536C248.056 73 247.816 72.76 247.816 72.28V48.736C247.816 46.24 247.168 44.248 245.872 42.76C244.576 41.272 242.8 40.528 240.544 40.528C238.288 40.528 236.464 41.296 235.072 42.832C233.728 44.32 233.056 46.336 233.056 48.88V72.28C233.056 72.76 232.816 73 232.336 73H228.664C228.184 73 227.944 72.76 227.944 72.28V37.288C227.944 36.808 228.184 36.568 228.664 36.568H232.336C232.816 36.568 233.056 36.808 233.056 37.288V40.096C233.056 40.192 233.08 40.264 233.128 40.312C233.224 40.36 233.32 40.336 233.416 40.24C235.288 37.456 238.168 36.064 242.056 36.064ZM273.407 73.36C269.711 73.36 266.735 72.472 264.479 70.696C262.223 68.92 261.095 66.64 261.095 63.856V63.208C261.095 62.728 261.335 62.488 261.815 62.488H265.343C265.823 62.488 266.063 62.728 266.063 63.208V63.712C266.063 65.248 266.735 66.592 268.079 67.744C269.471 68.848 271.247 69.4 273.407 69.4C275.519 69.4 277.223 68.848 278.519 67.744C279.815 66.64 280.463 65.248 280.463 63.568C280.463 62.368 280.103 61.36 279.383 60.544C278.663 59.728 277.775 59.08 276.719 58.6C275.663 58.12 274.199 57.568 272.327 56.944C270.071 56.176 268.199 55.408 266.711 54.64C265.223 53.872 263.951 52.816 262.895 51.472C261.887 50.08 261.383 48.328 261.383 46.216C261.383 43.144 262.463 40.72 264.623 38.944C266.783 37.12 269.639 36.208 273.191 36.208C276.839 36.208 279.743 37.144 281.903 39.016C284.111 40.888 285.215 43.288 285.215 46.216V46.36C285.215 46.84 284.975 47.08 284.495 47.08H281.183C280.703 47.08 280.463 46.84 280.463 46.36V46.072C280.463 44.44 279.791 43.096 278.447 42.04C277.151 40.936 275.399 40.384 273.191 40.384C271.127 40.384 269.447 40.912 268.151 41.968C266.903 42.976 266.279 44.296 266.279 45.928C266.279 47.608 266.903 48.88 268.151 49.744C269.447 50.608 271.463 51.52 274.199 52.48C276.551 53.248 278.495 54.016 280.031 54.784C281.567 55.552 282.863 56.632 283.919 58.024C285.023 59.368 285.575 61.12 285.575 63.28C285.575 66.352 284.471 68.8 282.263 70.624C280.055 72.448 277.103 73.36 273.407 73.36ZM294.196 73C293.716 73 293.476 72.76 293.476 72.28V23.32C293.476 22.84 293.716 22.6 294.196 22.6H297.868C298.348 22.6 298.588 22.84 298.588 23.32V52.552C298.588 52.648 298.636 52.72 298.732 52.768C298.828 52.816 298.9 52.792 298.948 52.696L311.98 37C312.22 36.712 312.508 36.568 312.844 36.568H316.948C317.236 36.568 317.428 36.664 317.524 36.856C317.62 37 317.572 37.192 317.38 37.432L309.172 47.656C309.076 47.8 309.052 47.92 309.1 48.016L318.82 72.136L318.892 72.424C318.892 72.808 318.676 73 318.244 73H314.428C314.044 73 313.78 72.808 313.636 72.424L305.788 51.832C305.74 51.736 305.668 51.688 305.572 51.688C305.476 51.64 305.404 51.664 305.356 51.76L298.732 59.752C298.636 59.944 298.588 60.064 298.588 60.112V72.28C298.588 72.76 298.348 73 297.868 73H294.196ZM337.358 69.112C339.182 69.112 340.742 68.656 342.038 67.744C343.382 66.784 344.342 65.512 344.918 63.928C345.062 63.496 345.35 63.328 345.782 63.424L349.094 64.072C349.334 64.12 349.478 64.24 349.526 64.432C349.622 64.576 349.646 64.744 349.598 64.936C348.782 67.624 347.294 69.736 345.134 71.272C342.974 72.808 340.358 73.576 337.286 73.576C333.782 73.576 330.926 72.664 328.718 70.84C326.51 68.968 325.142 66.448 324.614 63.28C324.422 62.08 324.302 60.664 324.254 59.032C324.206 57.4 324.182 56.056 324.182 55C324.182 53.896 324.182 53.128 324.182 52.696C324.182 50.248 324.278 48.256 324.47 46.72C324.854 43.504 326.174 40.912 328.43 38.944C330.734 36.976 333.614 35.992 337.07 35.992C340.766 35.992 343.766 37.048 346.07 39.16C348.374 41.272 349.67 44.056 349.958 47.512C350.102 49.096 350.174 52 350.174 56.224C350.174 56.704 349.934 56.944 349.454 56.944H329.582C329.39 56.944 329.294 57.04 329.294 57.232C329.294 58.72 329.342 60.376 329.438 62.2C329.678 64.264 330.494 65.944 331.886 67.24C333.326 68.488 335.15 69.112 337.358 69.112ZM337.142 40.456C334.982 40.456 333.206 41.104 331.814 42.4C330.47 43.648 329.678 45.304 329.438 47.368C329.342 49.384 329.294 51.064 329.294 52.408C329.294 52.6 329.39 52.696 329.582 52.696H344.774C344.966 52.696 345.062 52.6 345.062 52.408C345.062 51.016 344.966 49.36 344.774 47.44C344.534 45.376 343.718 43.696 342.326 42.4C340.982 41.104 339.254 40.456 337.142 40.456Z" fill="#00664F"/>
<path d="M143.218 141C142.69 141 142.378 140.736 142.282 140.208L140.842 133.872C140.794 133.68 140.674 133.584 140.482 133.584H128.314C128.122 133.584 128.002 133.68 127.954 133.872L126.514 140.208C126.418 140.736 126.106 141 125.578 141H114.994C114.37 141 114.13 140.688 114.274 140.064L127.162 91.32C127.306 90.84 127.642 90.6 128.17 90.6H140.77C141.298 90.6 141.634 90.84 141.778 91.32L154.666 140.064L154.738 140.352C154.738 140.784 154.474 141 153.946 141H143.218ZM130.114 124.008C130.066 124.248 130.186 124.368 130.474 124.368H138.178C138.274 124.368 138.37 124.344 138.466 124.296C138.562 124.2 138.586 124.08 138.538 123.936L134.506 106.08C134.458 105.888 134.386 105.792 134.29 105.792C134.194 105.792 134.122 105.888 134.074 106.08L130.114 124.008ZM178.468 103.2C182.068 103.2 184.876 104.352 186.892 106.656C188.908 108.912 189.916 112.08 189.916 116.16V140.136C189.916 140.376 189.82 140.592 189.628 140.784C189.484 140.928 189.292 141 189.052 141H178.828C178.588 141 178.372 140.928 178.18 140.784C178.036 140.592 177.964 140.376 177.964 140.136V117.888C177.964 116.544 177.628 115.464 176.956 114.648C176.284 113.832 175.396 113.424 174.292 113.424C173.188 113.424 172.3 113.832 171.628 114.648C170.956 115.464 170.62 116.544 170.62 117.888V140.136C170.62 140.376 170.524 140.592 170.332 140.784C170.188 140.928 169.996 141 169.756 141H159.532C159.292 141 159.076 140.928 158.884 140.784C158.74 140.592 158.668 140.376 158.668 140.136V104.64C158.668 104.4 158.74 104.208 158.884 104.064C159.076 103.872 159.292 103.776 159.532 103.776H169.756C169.996 103.776 170.188 103.872 170.332 104.064C170.524 104.208 170.62 104.4 170.62 104.64V106.656C170.62 106.8 170.668 106.896 170.764 106.944C170.908 106.944 171.028 106.848 171.124 106.656C172.852 104.352 175.3 103.2 178.468 103.2ZM206.401 141.576C202.657 141.576 199.561 140.736 197.113 139.056C194.713 137.328 193.513 134.424 193.513 130.344C193.513 126.408 194.761 123.576 197.257 121.848C199.753 120.072 203.425 119.184 208.273 119.184H213.241C213.481 119.184 213.601 119.064 213.601 118.824V117.168C213.601 116.016 213.265 115.104 212.593 114.432C211.921 113.76 210.985 113.424 209.785 113.424C208.873 113.424 208.081 113.616 207.409 114C206.785 114.384 206.353 114.912 206.113 115.584C205.969 116.112 205.657 116.352 205.177 116.304L194.809 115.584C194.233 115.488 193.969 115.176 194.017 114.648C194.209 112.44 195.001 110.472 196.393 108.744C197.785 106.968 199.585 105.6 201.793 104.64C204.049 103.68 206.473 103.2 209.065 103.2C211.321 103.2 213.337 103.584 215.113 104.352C216.937 105.12 218.449 106.128 219.649 107.376C219.841 107.568 220.009 107.568 220.153 107.376C221.209 106.176 222.625 105.192 224.401 104.424C226.225 103.608 228.241 103.2 230.449 103.2C234.241 103.2 237.529 104.28 240.313 106.44C243.097 108.6 244.777 111.432 245.353 114.936C245.785 117.864 246.001 121.32 246.001 125.304C246.001 125.88 245.713 126.168 245.137 126.168H226.489C226.249 126.168 226.129 126.288 226.129 126.528C226.129 126.96 226.153 127.368 226.201 127.752C226.393 128.904 226.921 129.792 227.785 130.416C228.697 130.992 229.825 131.28 231.169 131.28C233.233 131.28 234.841 130.488 235.993 128.904C236.329 128.424 236.713 128.304 237.145 128.544L244.417 131.64C244.945 131.88 245.113 132.24 244.921 132.72C243.913 135.552 242.233 137.736 239.881 139.272C237.577 140.808 234.697 141.576 231.241 141.576C228.457 141.576 226.033 141.096 223.969 140.136C221.905 139.176 220.537 138.024 219.865 136.68C219.673 136.392 219.577 136.32 219.577 136.464C218.809 137.904 217.225 139.128 214.825 140.136C212.473 141.096 209.665 141.576 206.401 141.576ZM226.057 118.824C226.057 119.064 226.177 119.184 226.417 119.184H233.545C233.785 119.184 233.905 119.064 233.905 118.824C233.905 118.584 233.881 118.272 233.833 117.888C233.785 117.456 233.737 117.096 233.689 116.808C233.497 115.8 233.065 114.984 232.393 114.36C231.769 113.736 230.977 113.424 230.017 113.424C229.009 113.424 228.169 113.736 227.497 114.36C226.825 114.984 226.417 115.8 226.273 116.808C226.129 117.432 226.057 118.104 226.057 118.824ZM208.993 133.08C210.193 133.08 211.249 132.72 212.161 132C213.121 131.232 213.601 130.248 213.601 129.048V126.528C213.601 126.288 213.481 126.168 213.241 126.168H210.001C208.609 126.168 207.505 126.48 206.689 127.104C205.921 127.728 205.537 128.616 205.537 129.768C205.537 130.776 205.849 131.592 206.473 132.216C207.097 132.792 207.937 133.08 208.993 133.08ZM264.62 141.576C261.5 141.576 258.764 141.096 256.412 140.136C254.06 139.176 252.236 137.856 250.94 136.176C249.692 134.448 249.068 132.48 249.068 130.272V129.696C249.068 129.456 249.14 129.264 249.284 129.12C249.476 128.928 249.692 128.832 249.932 128.832H259.652C259.892 128.832 260.084 128.928 260.228 129.12C260.42 129.264 260.516 129.456 260.516 129.696V129.768C260.516 130.632 260.9 131.352 261.668 131.928C262.436 132.456 263.396 132.72 264.548 132.72C265.556 132.72 266.348 132.504 266.924 132.072C267.548 131.64 267.86 131.088 267.86 130.416C267.86 129.648 267.452 129.072 266.636 128.688C265.868 128.256 264.596 127.824 262.82 127.392C260.948 126.96 259.388 126.48 258.14 125.952C255.644 124.992 253.58 123.696 251.948 122.064C250.316 120.432 249.5 118.152 249.5 115.224C249.5 111.528 250.844 108.6 253.532 106.44C256.22 104.28 259.772 103.2 264.188 103.2C268.7 103.2 272.3 104.352 274.988 106.656C277.724 108.912 279.092 111.912 279.092 115.656C279.092 116.184 278.804 116.448 278.228 116.448H268.868C268.628 116.448 268.412 116.376 268.22 116.232C268.076 116.04 268.004 115.824 268.004 115.584V115.296C268.004 114.48 267.668 113.808 266.996 113.28C266.324 112.752 265.46 112.488 264.404 112.488C263.396 112.488 262.556 112.728 261.884 113.208C261.26 113.688 260.948 114.288 260.948 115.008C260.948 115.92 261.38 116.592 262.244 117.024C263.156 117.456 264.596 117.936 266.564 118.464C267.716 118.704 268.748 118.992 269.66 119.328C272.78 120.336 275.252 121.656 277.076 123.288C278.948 124.872 279.884 127.152 279.884 130.128C279.884 133.728 278.492 136.536 275.708 138.552C272.972 140.568 269.276 141.576 264.62 141.576ZM304.277 111.84C304.277 112.08 304.181 112.296 303.989 112.488C303.845 112.632 303.653 112.704 303.413 112.704H298.301C298.061 112.704 297.941 112.824 297.941 113.064V127.32C297.941 128.568 298.181 129.48 298.661 130.056C299.141 130.584 299.885 130.824 300.893 130.776H302.477C302.717 130.776 302.909 130.872 303.053 131.064C303.245 131.208 303.341 131.4 303.341 131.64V140.136C303.341 140.712 303.053 141 302.477 141C300.557 141.096 299.165 141.144 298.301 141.144C294.317 141.144 291.341 140.52 289.373 139.272C287.453 138.024 286.493 135.648 286.493 132.144V113.064C286.493 112.824 286.373 112.704 286.133 112.704H282.893C282.653 112.704 282.437 112.632 282.245 112.488C282.101 112.296 282.029 112.08 282.029 111.84V104.64C282.029 104.4 282.101 104.208 282.245 104.064C282.437 103.872 282.653 103.776 282.893 103.776H286.133C286.373 103.776 286.493 103.656 286.493 103.416V95.064C286.493 94.824 286.565 94.632 286.709 94.488C286.901 94.296 287.117 94.2 287.357 94.2H297.077C297.317 94.2 297.509 94.296 297.653 94.488C297.845 94.632 297.941 94.824 297.941 95.064V103.416C297.941 103.656 298.061 103.776 298.301 103.776H303.413C303.653 103.776 303.845 103.872 303.989 104.064C304.181 104.208 304.277 104.4 304.277 104.64V111.84ZM339.689 117.312C339.785 119.328 339.833 120.888 339.833 121.992L339.761 124.872C339.761 125.448 339.473 125.736 338.897 125.736H320.033C319.841 125.736 319.745 125.832 319.745 126.024C319.745 126.552 319.841 127.248 320.033 128.112C320.273 129.12 320.729 129.912 321.401 130.488C322.121 131.064 323.033 131.352 324.137 131.352C326.153 131.352 327.521 130.536 328.241 128.904C328.433 128.424 328.793 128.232 329.321 128.328L338.537 130.128C339.209 130.224 339.425 130.56 339.185 131.136C338.033 134.544 336.185 137.136 333.641 138.912C331.145 140.688 328.049 141.576 324.353 141.576C315.377 141.576 310.025 137.664 308.297 129.84C307.865 127.968 307.649 125.112 307.649 121.272C307.649 119.016 307.793 117.144 308.081 115.656C308.609 111.864 310.265 108.84 313.049 106.584C315.833 104.328 319.337 103.2 323.561 103.2C328.169 103.2 331.913 104.496 334.793 107.088C337.721 109.68 339.353 113.088 339.689 117.312ZM323.705 113.424C322.697 113.424 321.857 113.736 321.185 114.36C320.561 114.936 320.129 115.752 319.889 116.808L319.673 118.824C319.673 119.064 319.793 119.184 320.033 119.184H327.377C327.617 119.184 327.737 119.064 327.737 118.824C327.641 117.96 327.545 117.288 327.449 116.808C327.305 115.8 326.897 114.984 326.225 114.36C325.553 113.736 324.713 113.424 323.705 113.424ZM358.487 141.576C355.367 141.576 352.631 141.096 350.279 140.136C347.927 139.176 346.103 137.856 344.807 136.176C343.559 134.448 342.935 132.48 342.935 130.272V129.696C342.935 129.456 343.007 129.264 343.151 129.12C343.343 128.928 343.559 128.832 343.799 128.832H353.519C353.759 128.832 353.951 128.928 354.095 129.12C354.287 129.264 354.383 129.456 354.383 129.696V129.768C354.383 130.632 354.767 131.352 355.535 131.928C356.303 132.456 357.263 132.72 358.415 132.72C359.423 132.72 360.215 132.504 360.791 132.072C361.415 131.64 361.727 131.088 361.727 130.416C361.727 129.648 361.319 129.072 360.503 128.688C359.735 128.256 358.463 127.824 356.687 127.392C354.815 126.96 353.255 126.48 352.007 125.952C349.511 124.992 347.447 123.696 345.815 122.064C344.183 120.432 343.367 118.152 343.367 115.224C343.367 111.528 344.711 108.6 347.399 106.44C350.087 104.28 353.639 103.2 358.055 103.2C362.567 103.2 366.167 104.352 368.855 106.656C371.591 108.912 372.959 111.912 372.959 115.656C372.959 116.184 372.671 116.448 372.095 116.448H362.735C362.495 116.448 362.279 116.376 362.087 116.232C361.943 116.04 361.871 115.824 361.871 115.584V115.296C361.871 114.48 361.535 113.808 360.863 113.28C360.191 112.752 359.327 112.488 358.271 112.488C357.263 112.488 356.423 112.728 355.751 113.208C355.127 113.688 354.815 114.288 354.815 115.008C354.815 115.92 355.247 116.592 356.111 117.024C357.023 117.456 358.463 117.936 360.431 118.464C361.583 118.704 362.615 118.992 363.527 119.328C366.647 120.336 369.119 121.656 370.943 123.288C372.815 124.872 373.751 127.152 373.751 130.128C373.751 133.728 372.359 136.536 369.575 138.552C366.839 140.568 363.143 141.576 358.487 141.576ZM383.527 100.464C381.703 100.464 380.191 99.888 378.991 98.736C377.839 97.536 377.263 96.024 377.263 94.2C377.263 92.328 377.839 90.816 378.991 89.664C380.191 88.512 381.703 87.936 383.527 87.936C385.351 87.936 386.839 88.512 387.991 89.664C389.191 90.816 389.791 92.328 389.791 94.2C389.791 95.976 389.191 97.464 387.991 98.664C386.839 99.864 385.351 100.464 383.527 100.464ZM378.415 141C378.175 141 377.959 140.928 377.767 140.784C377.623 140.592 377.551 140.376 377.551 140.136V104.64C377.551 104.4 377.623 104.208 377.767 104.064C377.959 103.872 378.175 103.776 378.415 103.776H388.639C388.879 103.776 389.071 103.872 389.215 104.064C389.407 104.208 389.503 104.4 389.503 104.64V140.136C389.503 140.376 389.407 140.592 389.215 140.784C389.071 140.928 388.879 141 388.639 141H378.415ZM407.883 141.36C404.187 141.36 401.211 140.472 398.955 138.696C396.699 136.92 395.571 134.64 395.571 131.856V131.208C395.571 130.728 395.811 130.488 396.291 130.488H399.819C400.299 130.488 400.539 130.728 400.539 131.208V131.712C400.539 133.248 401.211 134.592 402.555 135.744C403.947 136.848 405.723 137.4 407.883 137.4C409.995 137.4 411.699 136.848 412.995 135.744C414.291 134.64 414.939 133.248 414.939 131.568C414.939 130.368 414.579 129.36 413.859 128.544C413.139 127.728 412.251 127.08 411.195 126.6C410.139 126.12 408.675 125.568 406.803 124.944C404.547 124.176 402.675 123.408 401.187 122.64C399.699 121.872 398.427 120.816 397.371 119.472C396.363 118.08 395.859 116.328 395.859 114.216C395.859 111.144 396.939 108.72 399.099 106.944C401.259 105.12 404.115 104.208 407.667 104.208C411.315 104.208 414.219 105.144 416.379 107.016C418.587 108.888 419.691 111.288 419.691 114.216V114.36C419.691 114.84 419.451 115.08 418.971 115.08H415.659C415.179 115.08 414.939 114.84 414.939 114.36V114.072C414.939 112.44 414.267 111.096 412.923 110.04C411.627 108.936 409.875 108.384 407.667 108.384C405.603 108.384 403.923 108.912 402.627 109.968C401.379 110.976 400.755 112.296 400.755 113.928C400.755 115.608 401.379 116.88 402.627 117.744C403.923 118.608 405.939 119.52 408.675 120.48C411.027 121.248 412.971 122.016 414.507 122.784C416.043 123.552 417.339 124.632 418.395 126.024C419.499 127.368 420.051 129.12 420.051 131.28C420.051 134.352 418.947 136.8 416.739 138.624C414.531 140.448 411.579 141.36 407.883 141.36ZM425.178 155.4C424.842 155.4 424.674 155.16 424.674 154.68V151.8C424.674 151.32 424.914 151.08 425.394 151.08H425.538C427.218 151.032 428.514 150.744 429.426 150.216C430.386 149.688 431.178 148.752 431.802 147.408C432.474 146.064 433.146 144 433.818 141.216C433.866 141.168 433.866 141.096 433.818 141C433.818 140.856 433.818 140.784 433.818 140.784L423.09 105.36L423.018 105.144C423.018 104.76 423.258 104.568 423.738 104.568H427.626C428.058 104.568 428.322 104.784 428.418 105.216L436.266 133.944C436.314 134.04 436.362 134.088 436.41 134.088C436.506 134.088 436.578 134.04 436.626 133.944L444.474 105.216C444.57 104.784 444.834 104.568 445.266 104.568H449.082C449.322 104.568 449.49 104.64 449.586 104.784C449.73 104.928 449.778 105.12 449.73 105.36L437.994 144.168C437.034 147.384 436.074 149.76 435.114 151.296C434.202 152.832 433.026 153.888 431.586 154.464C430.194 155.088 428.202 155.4 425.61 155.4H425.178ZM474.606 105.288C474.606 104.808 474.846 104.568 475.326 104.568H478.998C479.478 104.568 479.718 104.808 479.718 105.288V139.992C479.718 150.84 473.79 156 461.934 155.472C461.454 155.424 461.214 155.16 461.214 154.68L461.286 151.44C461.286 151.2 461.358 151.008 461.502 150.864C461.646 150.768 461.814 150.744 462.006 150.792C466.518 150.936 469.734 150.096 471.654 148.272C473.622 146.496 474.606 143.64 474.606 139.704V137.328C474.606 137.232 474.558 137.16 474.462 137.112C474.414 137.064 474.342 137.088 474.246 137.184C472.374 139.872 469.59 141.216 465.894 141.216C462.822 141.216 460.254 140.304 458.19 138.48C456.126 136.608 454.854 134.088 454.374 130.92C454.086 128.808 453.942 126.096 453.942 122.784C453.942 119.184 454.11 116.352 454.446 114.288C454.83 111.168 456.03 108.672 458.046 106.8C460.11 104.928 462.678 103.992 465.75 103.992C469.494 103.992 472.326 105.312 474.246 107.952C474.342 108.048 474.414 108.096 474.462 108.096C474.558 108.048 474.606 107.976 474.606 107.88V105.288ZM474.39 129.912C474.534 128.04 474.606 125.64 474.606 122.712C474.606 119.832 474.534 117.384 474.39 115.368C474.198 113.352 473.43 111.696 472.086 110.4C470.79 109.104 469.11 108.456 467.046 108.456C464.982 108.456 463.254 109.104 461.862 110.4C460.518 111.696 459.702 113.352 459.414 115.368C459.222 117.096 459.126 119.544 459.126 122.712C459.126 125.112 459.222 127.512 459.414 129.912C459.654 131.928 460.47 133.584 461.862 134.88C463.254 136.176 464.982 136.824 467.046 136.824C469.11 136.824 470.79 136.176 472.086 134.88C473.43 133.584 474.198 131.928 474.39 129.912ZM501.436 137.112C503.26 137.112 504.82 136.656 506.116 135.744C507.46 134.784 508.42 133.512 508.996 131.928C509.14 131.496 509.428 131.328 509.86 131.424L513.172 132.072C513.412 132.12 513.556 132.24 513.604 132.432C513.7 132.576 513.724 132.744 513.676 132.936C512.86 135.624 511.372 137.736 509.212 139.272C507.052 140.808 504.436 141.576 501.364 141.576C497.86 141.576 495.004 140.664 492.796 138.84C490.588 136.968 489.22 134.448 488.692 131.28C488.5 130.08 488.38 128.664 488.332 127.032C488.284 125.4 488.26 124.056 488.26 123C488.26 121.896 488.26 121.128 488.26 120.696C488.26 118.248 488.356 116.256 488.548 114.72C488.932 111.504 490.252 108.912 492.508 106.944C494.812 104.976 497.692 103.992 501.148 103.992C504.844 103.992 507.844 105.048 510.148 107.16C512.452 109.272 513.748 112.056 514.036 115.512C514.18 117.096 514.252 120 514.252 124.224C514.252 124.704 514.012 124.944 513.532 124.944H493.66C493.468 124.944 493.372 125.04 493.372 125.232C493.372 126.72 493.42 128.376 493.516 130.2C493.756 132.264 494.572 133.944 495.964 135.24C497.404 136.488 499.228 137.112 501.436 137.112ZM501.22 108.456C499.06 108.456 497.284 109.104 495.892 110.4C494.548 111.648 493.756 113.304 493.516 115.368C493.42 117.384 493.372 119.064 493.372 120.408C493.372 120.6 493.468 120.696 493.66 120.696H508.852C509.044 120.696 509.14 120.6 509.14 120.408C509.14 119.016 509.044 117.36 508.852 115.44C508.612 113.376 507.796 111.696 506.404 110.4C505.06 109.104 503.332 108.456 501.22 108.456ZM548.432 114.144C549.056 116.688 549.368 119.448 549.368 122.424C549.368 125.688 549.128 128.544 548.648 130.992C547.88 134.592 546.512 137.256 544.544 138.984C542.624 140.664 540.056 141.504 536.84 141.504C534.872 141.504 533.24 141.168 531.944 140.496C530.696 139.824 529.688 138.84 528.92 137.544C528.872 137.4 528.8 137.352 528.704 137.4C528.608 137.4 528.56 137.472 528.56 137.616V154.248C528.56 154.728 528.32 154.968 527.84 154.968H524.168C523.688 154.968 523.448 154.728 523.448 154.248V105.288C523.448 104.808 523.688 104.568 524.168 104.568H527.84C528.32 104.568 528.56 104.808 528.56 105.288V108.024C528.56 108.168 528.608 108.264 528.704 108.312C528.8 108.312 528.872 108.24 528.92 108.096C530.648 105.36 533.408 103.992 537.2 103.992C540.224 103.992 542.624 104.808 544.4 106.44C546.224 108.024 547.568 110.592 548.432 114.144ZM542.816 132.288C543.728 129.84 544.184 126.672 544.184 122.784C544.184 118.944 543.824 115.944 543.104 113.784C542.48 112.008 541.616 110.664 540.512 109.752C539.408 108.84 537.968 108.384 536.192 108.384C534.512 108.384 533.144 108.84 532.088 109.752C531.08 110.664 530.288 111.984 529.712 113.712C528.992 115.872 528.632 118.896 528.632 122.784C528.632 126.768 529.04 129.864 529.856 132.072C530.432 133.704 531.2 134.952 532.16 135.816C533.12 136.68 534.416 137.112 536.048 137.112C539.216 137.112 541.472 135.504 542.816 132.288ZM558.745 141C558.265 141 558.025 140.76 558.025 140.28V91.32C558.025 90.84 558.265 90.6 558.745 90.6H562.417C562.897 90.6 563.137 90.84 563.137 91.32V140.28C563.137 140.76 562.897 141 562.417 141H558.745ZM585.389 137.112C587.213 137.112 588.773 136.656 590.069 135.744C591.413 134.784 592.373 133.512 592.949 131.928C593.093 131.496 593.381 131.328 593.813 131.424L597.125 132.072C597.365 132.12 597.509 132.24 597.557 132.432C597.653 132.576 597.677 132.744 597.629 132.936C596.813 135.624 595.325 137.736 593.165 139.272C591.005 140.808 588.389 141.576 585.317 141.576C581.813 141.576 578.957 140.664 576.749 138.84C574.541 136.968 573.173 134.448 572.645 131.28C572.453 130.08 572.333 128.664 572.285 127.032C572.237 125.4 572.213 124.056 572.213 123C572.213 121.896 572.213 121.128 572.213 120.696C572.213 118.248 572.309 116.256 572.501 114.72C572.885 111.504 574.205 108.912 576.461 106.944C578.765 104.976 581.645 103.992 585.101 103.992C588.797 103.992 591.797 105.048 594.101 107.16C596.405 109.272 597.701 112.056 597.989 115.512C598.133 117.096 598.205 120 598.205 124.224C598.205 124.704 597.965 124.944 597.485 124.944H577.613C577.421 124.944 577.325 125.04 577.325 125.232C577.325 126.72 577.373 128.376 577.469 130.2C577.709 132.264 578.525 133.944 579.917 135.24C581.357 136.488 583.181 137.112 585.389 137.112ZM585.173 108.456C583.013 108.456 581.237 109.104 579.845 110.4C578.501 111.648 577.709 113.304 577.469 115.368C577.373 117.384 577.325 119.064 577.325 120.408C577.325 120.6 577.421 120.696 577.613 120.696H592.805C592.997 120.696 593.093 120.6 593.093 120.408C593.093 119.016 592.997 117.36 592.805 115.44C592.565 113.376 591.749 111.696 590.357 110.4C589.013 109.104 587.285 108.456 585.173 108.456ZM609.561 97.944C608.409 97.944 607.449 97.56 606.681 96.792C605.913 96.024 605.529 95.064 605.529 93.912C605.529 92.712 605.913 91.752 606.681 91.032C607.449 90.264 608.409 89.88 609.561 89.88C610.713 89.88 611.673 90.264 612.441 91.032C613.209 91.752 613.593 92.712 613.593 93.912C613.593 95.064 613.209 96.024 612.441 96.792C611.673 97.56 610.713 97.944 609.561 97.944ZM600.273 155.976C599.793 155.976 599.553 155.736 599.553 155.256V152.232C599.553 151.752 599.793 151.512 600.273 151.512C602.529 151.464 604.209 150.816 605.313 149.568C606.465 148.32 607.041 146.52 607.041 144.168L606.969 105.288C606.969 104.808 607.209 104.568 607.689 104.568H611.361C611.841 104.568 612.081 104.808 612.081 105.288V144.168C612.081 148.2 611.193 151.176 609.417 153.096C607.641 155.016 604.593 155.976 600.273 155.976ZM635.241 137.112C637.065 137.112 638.625 136.656 639.921 135.744C641.265 134.784 642.225 133.512 642.801 131.928C642.945 131.496 643.233 131.328 643.665 131.424L646.977 132.072C647.217 132.12 647.361 132.24 647.409 132.432C647.505 132.576 647.529 132.744 647.481 132.936C646.665 135.624 645.177 137.736 643.017 139.272C640.857 140.808 638.241 141.576 635.169 141.576C631.665 141.576 628.809 140.664 626.601 138.84C624.393 136.968 623.025 134.448 622.497 131.28C622.305 130.08 622.185 128.664 622.137 127.032C622.089 125.4 622.065 124.056 622.065 123C622.065 121.896 622.065 121.128 622.065 120.696C622.065 118.248 622.161 116.256 622.353 114.72C622.737 111.504 624.057 108.912 626.313 106.944C628.617 104.976 631.497 103.992 634.953 103.992C638.649 103.992 641.649 105.048 643.953 107.16C646.257 109.272 647.553 112.056 647.841 115.512C647.985 117.096 648.057 120 648.057 124.224C648.057 124.704 647.817 124.944 647.337 124.944H627.465C627.273 124.944 627.177 125.04 627.177 125.232C627.177 126.72 627.225 128.376 627.321 130.2C627.561 132.264 628.377 133.944 629.769 135.24C631.209 136.488 633.033 137.112 635.241 137.112ZM635.025 108.456C632.865 108.456 631.089 109.104 629.697 110.4C628.353 111.648 627.561 113.304 627.321 115.368C627.225 117.384 627.177 119.064 627.177 120.408C627.177 120.6 627.273 120.696 627.465 120.696H642.657C642.849 120.696 642.945 120.6 642.945 120.408C642.945 119.016 642.849 117.36 642.657 115.44C642.417 113.376 641.601 111.696 640.209 110.4C638.865 109.104 637.137 108.456 635.025 108.456ZM670.285 104.208C671.725 104.208 672.949 104.496 673.957 105.072C674.293 105.216 674.413 105.504 674.317 105.936L673.453 109.68C673.405 110.16 673.117 110.304 672.589 110.112C671.821 109.776 670.981 109.608 670.069 109.608L669.205 109.68C667.093 109.728 665.341 110.64 663.949 112.416C662.557 114.192 661.861 116.352 661.861 118.896V140.28C661.861 140.76 661.621 141 661.141 141H657.469C656.989 141 656.749 140.76 656.749 140.28V105.288C656.749 104.808 656.989 104.568 657.469 104.568H661.141C661.621 104.568 661.861 104.808 661.861 105.288V109.968C661.861 110.112 661.885 110.184 661.933 110.184C662.029 110.184 662.101 110.136 662.149 110.04C662.965 108.216 664.045 106.8 665.389 105.792C666.781 104.736 668.413 104.208 670.285 104.208ZM691.032 141.36C687.336 141.36 684.36 140.472 682.104 138.696C679.848 136.92 678.72 134.64 678.72 131.856V131.208C678.72 130.728 678.96 130.488 679.44 130.488H682.968C683.448 130.488 683.688 130.728 683.688 131.208V131.712C683.688 133.248 684.36 134.592 685.704 135.744C687.096 136.848 688.872 137.4 691.032 137.4C693.144 137.4 694.848 136.848 696.144 135.744C697.44 134.64 698.088 133.248 698.088 131.568C698.088 130.368 697.728 129.36 697.008 128.544C696.288 127.728 695.4 127.08 694.344 126.6C693.288 126.12 691.824 125.568 689.952 124.944C687.696 124.176 685.824 123.408 684.336 122.64C682.848 121.872 681.576 120.816 680.52 119.472C679.512 118.08 679.008 116.328 679.008 114.216C679.008 111.144 680.088 108.72 682.248 106.944C684.408 105.12 687.264 104.208 690.816 104.208C694.464 104.208 697.368 105.144 699.528 107.016C701.736 108.888 702.84 111.288 702.84 114.216V114.36C702.84 114.84 702.6 115.08 702.12 115.08H698.808C698.328 115.08 698.088 114.84 698.088 114.36V114.072C698.088 112.44 697.416 111.096 696.072 110.04C694.776 108.936 693.024 108.384 690.816 108.384C688.752 108.384 687.072 108.912 685.776 109.968C684.528 110.976 683.904 112.296 683.904 113.928C683.904 115.608 684.528 116.88 685.776 117.744C687.072 118.608 689.088 119.52 691.824 120.48C694.176 121.248 696.12 122.016 697.656 122.784C699.192 123.552 700.488 124.632 701.544 126.024C702.648 127.368 703.2 129.12 703.2 131.28C703.2 134.352 702.096 136.8 699.888 138.624C697.68 140.448 694.728 141.36 691.032 141.36ZM711.821 141C711.341 141 711.101 140.76 711.101 140.28V91.32C711.101 90.84 711.341 90.6 711.821 90.6H715.493C715.973 90.6 716.213 90.84 716.213 91.32V120.552C716.213 120.648 716.261 120.72 716.357 120.768C716.453 120.816 716.525 120.792 716.573 120.696L729.605 105C729.845 104.712 730.133 104.568 730.469 104.568H734.573C734.861 104.568 735.053 104.664 735.149 104.856C735.245 105 735.197 105.192 735.005 105.432L726.797 115.656C726.701 115.8 726.677 115.92 726.725 116.016L736.445 140.136L736.517 140.424C736.517 140.808 736.301 141 735.869 141H732.053C731.669 141 731.405 140.808 731.261 140.424L723.413 119.832C723.365 119.736 723.293 119.688 723.197 119.688C723.101 119.64 723.029 119.664 722.981 119.76L716.357 127.752C716.261 127.944 716.213 128.064 716.213 128.112V140.28C716.213 140.76 715.973 141 715.493 141H711.821ZM754.983 137.112C756.807 137.112 758.367 136.656 759.663 135.744C761.007 134.784 761.967 133.512 762.543 131.928C762.687 131.496 762.975 131.328 763.407 131.424L766.719 132.072C766.959 132.12 767.103 132.24 767.151 132.432C767.247 132.576 767.271 132.744 767.223 132.936C766.407 135.624 764.919 137.736 762.759 139.272C760.599 140.808 757.983 141.576 754.911 141.576C751.407 141.576 748.551 140.664 746.343 138.84C744.135 136.968 742.767 134.448 742.239 131.28C742.047 130.08 741.927 128.664 741.879 127.032C741.831 125.4 741.807 124.056 741.807 123C741.807 121.896 741.807 121.128 741.807 120.696C741.807 118.248 741.903 116.256 742.095 114.72C742.479 111.504 743.799 108.912 746.055 106.944C748.359 104.976 751.239 103.992 754.695 103.992C758.391 103.992 761.391 105.048 763.695 107.16C765.999 109.272 767.295 112.056 767.583 115.512C767.727 117.096 767.799 120 767.799 124.224C767.799 124.704 767.559 124.944 767.079 124.944H747.207C747.015 124.944 746.919 125.04 746.919 125.232C746.919 126.72 746.967 128.376 747.063 130.2C747.303 132.264 748.119 133.944 749.511 135.24C750.951 136.488 752.775 137.112 754.983 137.112ZM754.767 108.456C752.607 108.456 750.831 109.104 749.439 110.4C748.095 111.648 747.303 113.304 747.063 115.368C746.967 117.384 746.919 119.064 746.919 120.408C746.919 120.6 747.015 120.696 747.207 120.696H762.399C762.591 120.696 762.687 120.6 762.687 120.408C762.687 119.016 762.591 117.36 762.399 115.44C762.159 113.376 761.343 111.696 759.951 110.4C758.607 109.104 756.879 108.456 754.767 108.456ZM790.027 104.208C791.467 104.208 792.691 104.496 793.699 105.072C794.035 105.216 794.155 105.504 794.059 105.936L793.195 109.68C793.147 110.16 792.859 110.304 792.331 110.112C791.563 109.776 790.723 109.608 789.811 109.608L788.947 109.68C786.835 109.728 785.083 110.64 783.691 112.416C782.299 114.192 781.603 116.352 781.603 118.896V140.28C781.603 140.76 781.363 141 780.883 141H777.211C776.731 141 776.491 140.76 776.491 140.28V105.288C776.491 104.808 776.731 104.568 777.211 104.568H780.883C781.363 104.568 781.603 104.808 781.603 105.288V109.968C781.603 110.112 781.627 110.184 781.675 110.184C781.771 110.184 781.843 110.136 781.891 110.04C782.707 108.216 783.787 106.8 785.131 105.792C786.523 104.736 788.155 104.208 790.027 104.208Z" fill="#00664F"/>
<path fill-rule="evenodd" clip-rule="evenodd" d="M90.7026 38.5106C91.0456 37.2494 90.3663 35.9345 89.132 35.5046C74.5015 30.4094 57.1489 26.5778 27.1624 26.5627C25.1181 26.5617 24.5512 23.9192 26.4751 23.2281C48.976 15.1457 76.1335 14.1877 107.622 25.7288C108.842 26.1762 109.508 27.4955 109.154 28.7466L105.832 40.4828C105.771 40.697 105.669 40.8988 105.611 41.1136L89.4437 100.56L89.437 100.585L80.2838 134.241C79.5591 136.906 76.8115 138.478 74.1469 137.754L64.7116 135.188C62.047 134.463 60.4743 131.715 61.199 129.051L82.146 52.0285C82.6275 50.2581 84.0019 48.9697 85.6517 48.5169C86.9354 48.1646 88.2731 47.4437 88.6225 46.1591L90.7026 38.5106Z" fill="#00664F"/>
</svg>
